<svg width="32" height="32" viewBox="0 0 32 32" fill="none" xmlns="http://www.w3.org/2000/svg">
<path d="M27.7731 10.6804L19.0398 3.69368C17.3331 2.33368 14.6665 2.32035 12.9731 3.68035L4.23979 10.6804C2.98645 11.6804 2.22645 13.6803 2.49312 15.2537L4.17312 25.307C4.55979 27.5603 6.65312 29.3337 8.93312 29.3337H23.0665C25.3198 29.3337 27.4531 27.5203 27.8398 25.2937L29.5198 15.2403C29.7598 13.6803 28.9998 11.6804 27.7731 10.6804ZM16.9998 24.0003C16.9998 24.547 16.5465 25.0003 15.9998 25.0003C15.4531 25.0003 14.9998 24.547 14.9998 24.0003V20.0003C14.9998 19.4537 15.4531 19.0003 15.9998 19.0003C16.5465 19.0003 16.9998 19.4537 16.9998 20.0003V24.0003Z" fill="white"/>
</svg>
